<svg width="33" height="32" viewBox="0 0 33 32" fill="none" xmlns="http://www.w3.org/2000/svg">
<path id="Vector" fill-rule="evenodd" clip-rule="evenodd" d="M16.5132 0C7.69195 0 0.560852 7.33333 0.560852 16.4057C0.560852 23.6577 5.12999 29.7963 11.4686 31.969C12.2611 32.1323 12.5514 31.616 12.5514 31.1817C12.5514 30.8013 12.5253 29.4977 12.5253 28.1393C8.08771 29.1173 7.16363 26.1837 7.16363 26.1837C6.45048 24.2823 5.39383 23.7937 5.39383 23.7937C3.94142 22.7887 5.49963 22.7887 5.49963 22.7887C7.11073 22.8973 7.95612 24.4727 7.95612 24.4727C9.38208 26.9713 11.6799 26.2653 12.6043 25.8307C12.7362 24.7713 13.1591 24.038 13.608 23.6307C10.0688 23.2503 6.34502 21.838 6.34502 15.5363C6.34502 13.7437 6.97848 12.277 7.98224 11.1363C7.82387 10.729 7.2691 9.04467 8.14093 6.79033C8.14093 6.79033 9.48787 6.35567 12.5249 8.47433C13.8252 8.11522 15.1662 7.93254 16.5132 7.931C17.8601 7.931 19.2332 8.12133 20.5011 8.47433C23.5385 6.35567 24.8854 6.79033 24.8854 6.79033C25.7573 9.04467 25.2022 10.729 25.0438 11.1363C26.074 12.277 26.6813 13.7437 26.6813 15.5363C26.6813 21.838 22.9576 23.223 19.3919 23.6307C19.9731 24.1467 20.4746 25.1243 20.4746 26.6727C20.4746 28.8727 20.4485 30.6383 20.4485 31.1813C20.4485 31.616 20.7391 32.1323 21.5313 31.9693C27.8699 29.796 32.4391 23.6577 32.4391 16.4057C32.4652 7.33333 25.308 0 16.5132 0Z" fill="#24292F"/>
</svg>
