<svg width="33" height="32" viewBox="0 0 33 32" fill="none" xmlns="http://www.w3.org/2000/svg">
<g id="Frame">
<path id="Vector" d="M30.58 16.3333C30.58 15.2933 30.4867 14.2933 30.3133 13.3333H16.5V19.0133H24.3933C24.0467 20.84 23.0067 22.3867 21.4467 23.4267V27.12H26.2067C28.98 24.56 30.58 20.8 30.58 16.3333Z" fill="#4285F4"/>
<path id="Vector_2" d="M16.5 30.6667C20.46 30.6667 23.78 29.36 26.2067 27.12L21.4467 23.4267C20.14 24.3067 18.4733 24.84 16.5 24.84C12.6867 24.84 9.44668 22.2667 8.28668 18.8H3.40668V22.5867C5.82001 27.3733 10.7667 30.6667 16.5 30.6667Z" fill="#34A853"/>
<path id="Vector_3" d="M8.28668 18.7867C7.99334 17.9067 7.82001 16.9733 7.82001 16C7.82001 15.0267 7.99334 14.0933 8.28668 13.2133V9.42667H3.40668C2.40668 11.4 1.83334 13.6267 1.83334 16C1.83334 18.3733 2.40668 20.6 3.40668 22.5733L7.20668 19.6133L8.28668 18.7867Z" fill="#FBBC05"/>
<path id="Vector_4" d="M16.5 7.17333C18.66 7.17333 20.58 7.92 22.1133 9.36L26.3133 5.16C23.7667 2.78667 20.46 1.33333 16.5 1.33333C10.7667 1.33333 5.82001 4.62667 3.40668 9.42667L8.28668 13.2133C9.44668 9.74667 12.6867 7.17333 16.5 7.17333Z" fill="#EA4335"/>
</g>
</svg>
